<svg xmlns="http://www.w3.org/2000/svg" style="display: none;">
  <symbol id="github" viewBox="0 0 1024 1024" fill="none">
    <path fill-rule="evenodd" clip-rule="evenodd" d="M8 0C3.58 0 0 3.58 0 8C0 11.54 2.29 14.53 5.47 15.59C5.87 15.66 6.02 15.42 6.02 15.21C6.02 15.02 6.01 14.39 6.01 13.72C4 14.09 3.48 13.23 3.32 12.78C3.23 12.55 2.84 11.84 2.5 11.65C2.22 11.5 1.82 11.13 2.49 11.12C3.12 11.11 3.57 11.7 3.72 11.94C4.44 13.15 5.59 12.81 6.05 12.6C6.12 12.08 6.33 11.73 6.56 11.53C4.78 11.33 2.92 10.64 2.92 7.58C2.92 6.71 3.23 5.99 3.74 5.43C3.66 5.23 3.38 4.41 3.82 3.31C3.82 3.31 4.49 3.1 6.02 4.13C6.66 3.95 7.34 3.86 8.02 3.86C8.7 3.86 9.38 3.95 10.02 4.13C11.55 3.09 12.22 3.31 12.22 3.31C12.66 4.41 12.38 5.23 12.3 5.43C12.81 5.99 13.12 6.7 13.12 7.58C13.12 10.65 11.25 11.33 9.47 11.53C9.76 11.78 10.01 12.26 10.01 13.01C10.01 14.08 10 14.94 10 15.21C10 15.42 10.15 15.67 10.55 15.59C13.71 14.53 16 11.53 16 8C16 3.58 12.42 0 8 0Z" transform="scale(64)" fill="#ffff"/>
  </symbol>

  <symbol id="instagram" viewBox="0 0 256 256">
    <path fill="#fff" d="M128 23.064c34.177 0 38.225.13 51.722.745 12.48.57 19.258 2.655 23.769 4.408 5.974 2.322 10.238 5.096 14.717 9.575 4.48 4.479 7.253 8.743 9.575 14.717 1.753 4.511 3.838 11.289 4.408 23.768.615 13.498.745 17.546.745 51.723 0 34.178-.13 38.226-.745 51.723-.57 12.48-2.655 19.257-4.408 23.768-2.322 5.974-5.096 10.239-9.575 14.718-4.479 4.479-8.743 7.253-14.717 9.574-4.511 1.753-11.289 3.839-23.769 4.408-13.495.616-17.543.746-51.722.746-34.18 0-38.228-.13-51.723-.746-12.48-.57-19.257-2.655-23.768-4.408-5.974-2.321-10.239-5.095-14.718-9.574-4.479-4.48-7.253-8.744-9.574-14.718-1.753-4.51-3.839-11.288-4.408-23.768-.616-13.497-.746-17.545-.746-51.723 0-34.177.13-38.225.746-51.722.57-12.48 2.655-19.258 4.408-23.769 2.321-5.974 5.095-10.238 9.574-14.717 4.48-4.48 8.744-7.253 14.718-9.575 4.51-1.753 11.288-3.838 23.768-4.408 13.497-.615 17.545-.745 51.723-.745M128 0C93.237 0 88.878.147 75.226.77c-13.625.622-22.93 2.786-31.071 5.95-8.418 3.271-15.556 7.648-22.672 14.764C14.367 28.6 9.991 35.738 6.72 44.155 3.555 52.297 1.392 61.602.77 75.226.147 88.878 0 93.237 0 128c0 34.763.147 39.122.77 52.774.622 13.625 2.785 22.93 5.95 31.071 3.27 8.417 7.647 15.556 14.763 22.672 7.116 7.116 14.254 11.492 22.672 14.763 8.142 3.165 17.446 5.328 31.07 5.95 13.653.623 18.012.77 52.775.77s39.122-.147 52.774-.77c13.624-.622 22.929-2.785 31.07-5.95 8.418-3.27 15.556-7.647 22.672-14.763 7.116-7.116 11.493-14.254 14.764-22.672 3.164-8.142 5.328-17.446 5.95-31.07.623-13.653.77-18.012.77-52.775s-.147-39.122-.77-52.774c-.622-13.624-2.786-22.929-5.95-31.07-3.271-8.418-7.648-15.556-14.764-22.672C227.4 14.368 220.262 9.99 211.845 6.72c-8.142-3.164-17.447-5.328-31.071-5.95C167.122.147 162.763 0 128 0Zm0 62.27c-36.302 0-65.73 29.43-65.73 65.73 0 36.302 29.428 65.73 65.73 65.73 36.301 0 65.73-29.428 65.73-65.73 0-36.301-29.429-65.73-65.73-65.73Zm0 108.397c-23.564 0-42.667-19.103-42.667-42.667S104.436 85.333 128 85.333s42.667 19.103 42.667 42.667-19.103 42.667-42.667 42.667Zm83.686-110.994c0 8.484-6.876 15.36-15.36 15.36-8.483 0-15.36-6.876-15.36-15.36 0-8.483 6.877-15.36 15.36-15.36 8.484 0 15.36 6.877 15.36 15.36Z"/>
  </symbol>

  <symbol id="x" xmlns="http://www.w3.org/2000/svg" fill="none" viewBox="0 0 1200 1227">
    <path fill="#fff" d="M714.163 519.284 1160.89 0h-105.86L667.137 450.887 357.328 0H0l468.492 681.821L0 1226.37h105.866l409.625-476.152 327.181 476.152H1200L714.137 519.284h.026ZM569.165 687.828l-47.468-67.894-377.686-540.24h162.604l304.797 435.991 47.468 67.894 396.2 566.721H892.476L569.165 687.854v-.026Z"/>
  </symbol>

  <symbol xmlns="http://www.w3.org/2000/svg" preserveAspectRatio="xMidYMid" viewBox="0 0 256 290" id="tiktok">
    <path fill="#FF004F" d="M189.72 104.421c18.678 13.345 41.56 21.197 66.273 21.197v-47.53a67.114 67.114 0 0 1-13.918-1.456v37.413c-24.711 0-47.59-7.851-66.272-21.195v96.996c0 48.523-39.356 87.855-87.9 87.855-18.113 0-34.949-5.473-48.934-14.86 15.962 16.313 38.222 26.432 62.848 26.432 48.548 0 87.905-39.332 87.905-87.857v-96.995h-.002Zm17.17-47.952c-9.546-10.423-15.814-23.893-17.17-38.785v-6.113h-13.189c3.32 18.927 14.644 35.097 30.358 44.898ZM69.673 225.607a40.008 40.008 0 0 1-8.203-24.33c0-22.192 18.001-40.186 40.21-40.186a40.313 40.313 0 0 1 12.197 1.883v-48.593c-4.61-.631-9.262-.9-13.912-.801v37.822a40.268 40.268 0 0 0-12.203-1.882c-22.208 0-40.208 17.992-40.208 40.187 0 15.694 8.997 29.281 22.119 35.9Z"/><path d="M175.803 92.849c18.683 13.344 41.56 21.195 66.272 21.195V76.631c-13.794-2.937-26.005-10.141-35.186-20.162-15.715-9.802-27.038-25.972-30.358-44.898h-34.643v189.843c-.079 22.132-18.049 40.052-40.21 40.052-13.058 0-24.66-6.221-32.007-15.86-13.12-6.618-22.118-20.206-22.118-35.898 0-22.193 18-40.187 40.208-40.187 4.255 0 8.356.662 12.203 1.882v-37.822c-47.692.985-86.047 39.933-86.047 87.834 0 23.912 9.551 45.589 25.053 61.428 13.985 9.385 30.82 14.86 48.934 14.86 48.545 0 87.9-39.335 87.9-87.857V92.85h-.001Z"/><path fill="#00F2EA" d="M242.075 76.63V66.516a66.285 66.285 0 0 1-35.186-10.047 66.47 66.47 0 0 0 35.186 20.163ZM176.53 11.57a67.788 67.788 0 0 1-.728-5.457V0h-47.834v189.845c-.076 22.13-18.046 40.05-40.208 40.05a40.06 40.06 0 0 1-18.09-4.287c7.347 9.637 18.949 15.857 32.007 15.857 22.16 0 40.132-17.918 40.21-40.05V11.571h34.643ZM99.966 113.58v-10.769a88.787 88.787 0 0 0-12.061-.818C39.355 101.993 0 141.327 0 189.845c0 30.419 15.467 57.227 38.971 72.996-15.502-15.838-25.053-37.516-25.053-61.427 0-47.9 38.354-86.848 86.048-87.833Z"/>
  </symbol>

  <symbol xmlns="http://www.w3.org/2000/svg" preserveAspectRatio="xMidYMid" viewBox="0 0 256 180" id="youtube">
    <path fill="red" d="M250.346 28.075A32.18 32.18 0 0 0 227.69 5.418C207.824 0 127.87 0 127.87 0S47.912.164 28.046 5.582A32.18 32.18 0 0 0 5.39 28.24c-6.009 35.298-8.34 89.084.165 122.97a32.18 32.18 0 0 0 22.656 22.657c19.866 5.418 99.822 5.418 99.822 5.418s79.955 0 99.82-5.418a32.18 32.18 0 0 0 22.657-22.657c6.338-35.348 8.291-89.1-.164-123.134Z"/><path fill="#FFF" d="m102.421 128.06 66.328-38.418-66.328-38.418z"/>
  </symbol>

  <symbol xmlns="http://www.w3.org/2000/svg" fill="none" viewBox="0 0 57 57" id="home">
    <path fill="#fff" d="M57 57H0L28.5 0l8.993 17.987-2.66 5.256-6.333-12.7-20.9 41.77h41.8L41.167 35.91l-6.334 12.667L28.5 35.913l-6.333 12.664-2.629-5.257L28.5 25.397l6.333 12.666 6.334-12.666L57 57Z"/>
  </symbol>

  <symbol id="linkedin" xmlns="http://www.w3.org/2000/svg" xml:space="preserve" viewBox="0 0 382 382">
    <path d="M347.445 0H34.555C15.471 0 0 15.471 0 34.555v312.889C0 366.529 15.471 382 34.555 382h312.889C366.529 382 382 366.529 382 347.444V34.555C382 15.471 366.529 0 347.445 0zM118.207 329.844c0 5.554-4.502 10.056-10.056 10.056H65.345c-5.554 0-10.056-4.502-10.056-10.056V150.403c0-5.554 4.502-10.056 10.056-10.056h42.806c5.554 0 10.056 4.502 10.056 10.056v179.441zM86.748 123.432c-22.459 0-40.666-18.207-40.666-40.666S64.289 42.1 86.748 42.1s40.666 18.207 40.666 40.666-18.206 40.666-40.666 40.666zM341.91 330.654a9.247 9.247 0 0 1-9.246 9.246H286.73a9.247 9.247 0 0 1-9.246-9.246v-84.168c0-12.556 3.683-55.021-32.813-55.021-28.309 0-34.051 29.066-35.204 42.11v97.079a9.246 9.246 0 0 1-9.246 9.246h-44.426a9.247 9.247 0 0 1-9.246-9.246V149.593a9.247 9.247 0 0 1 9.246-9.246h44.426a9.247 9.247 0 0 1 9.246 9.246v15.655c10.497-15.753 26.097-27.912 59.312-27.912 73.552 0 73.131 68.716 73.131 106.472v86.846z" fill="#fff"/>
  </symbol>
</svg>
